HIERARCHY
ROOT ROOT
{
	OFFSET 0.000000 56.020000 -5.659234
	CHANNELS 6 Xposition Yposition Zposition Xrotation Yrotation Zrotation 
	JOINT C_spine0001_bind_JNT
	{
		OFFSET 0.000000 1.618999 0.000000
		CHANNELS 3 Xrotation Yrotation Zrotation
		JOINT C_spine0002_bind_JNT
		{
			OFFSET 0.000000 4.942001 0.000001
			CHANNELS 3 Xrotation Yrotation Zrotation
			JOINT C_spine0003_bind_JNT
			{
				OFFSET 0.000000 4.942001 -0.000000
				CHANNELS 3 Xrotation Yrotation Zrotation
				JOINT C_neck0001_bind_JNT
				{
					OFFSET 0.000000 17.026009 -0.000000
					CHANNELS 3 Xrotation Yrotation Zrotation
					JOINT C_neck0002_bind_JNT
					{
						OFFSET 0.000000 3.249985 0.000000
						CHANNELS 3 Xrotation Yrotation Zrotation
						JOINT C_head_bind_JNT
						{
							OFFSET 0.000000 5.278008 0.000000
							CHANNELS 3 Xrotation Yrotation Zrotation
							End Site
							{
								OFFSET 0.000000 0.000000 0.000000
							}
						}
					}
				}
				JOINT L_clavicle_bind_JNT
				{
					OFFSET 4.590000 12.067001 0.834000
					CHANNELS 3 Xrotation Yrotation Zrotation
					JOINT L_armUpper0001_bind_JNT
					{
						OFFSET 7.812635 0.512001 -3.452945
						CHANNELS 3 Xrotation Yrotation Zrotation
						JOINT L_armLower0001_bind_JNT
						{
							OFFSET 15.265892 -6.552116 -0.058157
							CHANNELS 3 Xrotation Yrotation Zrotation
							JOINT L_hand0001_bind_JNT
							{
								OFFSET 14.747667 -6.369995 5.049225
								CHANNELS 3 Xrotation Yrotation Zrotation
								End Site
								{
									OFFSET 0.000000 0.000000 0.000000
								}
							}
						}
					}
				}
				JOINT R_clavicle_bind_JNT
				{
					OFFSET -4.590000 12.067001 0.834000
					CHANNELS 3 Xrotation Yrotation Zrotation
					JOINT R_armUpper0001_bind_JNT
					{
						OFFSET -7.812635 0.512001 -3.452945
						CHANNELS 3 Xrotation Yrotation Zrotation
						JOINT R_armLower0001_bind_JNT
						{
							OFFSET -15.265890 -6.552124 -0.058160
							CHANNELS 3 Xrotation Yrotation Zrotation
							JOINT R_hand0001_bind_JNT
							{
								OFFSET -14.746784 -6.369629 5.048937
								CHANNELS 3 Xrotation Yrotation Zrotation
								End Site
								{
									OFFSET 0.000000 0.000000 0.000000
								}
							}
						}
					}
				}
			}
		}
	}
	JOINT C_pelvis0001_bind_JNT
	{
		OFFSET -0.000000 0.000000 0.000000
		CHANNELS 3 Xrotation Yrotation Zrotation
		JOINT L_legUpper0001_bind_JNT
		{
			OFFSET 6.599999 -6.027000 0.539000
			CHANNELS 3 Xrotation Yrotation Zrotation
			JOINT L_legLower0001_bind_JNT
			{
				OFFSET -0.140713 -19.187443 0.040261
				CHANNELS 3 Xrotation Yrotation Zrotation
				JOINT L_foot0001_bind_JNT
				{
					OFFSET -0.132215 -18.028637 -1.138370
					CHANNELS 3 Xrotation Yrotation Zrotation
					JOINT L_foot0002_bind_JNT
					{
						OFFSET 0.007014 -4.693133 9.886524
						CHANNELS 3 Xrotation Yrotation Zrotation
						End Site
						{
							OFFSET 0.000000 0.000000 0.000000
						}
					}
				}
			}
		}
		JOINT R_legUpper0001_bind_JNT
		{
			OFFSET -6.599999 -6.027000 0.539000
			CHANNELS 3 Xrotation Yrotation Zrotation
			JOINT R_legLower0001_bind_JNT
			{
				OFFSET 0.140710 -19.187164 0.040550
				CHANNELS 3 Xrotation Yrotation Zrotation
				JOINT R_foot0001_bind_JNT
				{
					OFFSET 0.132215 -18.028633 -1.138362
					CHANNELS 3 Xrotation Yrotation Zrotation
					JOINT R_foot0002_bind_JNT
					{
						OFFSET -0.007014 -4.693128 9.886505
						CHANNELS 3 Xrotation Yrotation Zrotation
						End Site
						{
							OFFSET 0.000000 0.000000 0.000000
						}
					}
				}
			}
		}
	}
}
MOTION
Frames: 6
Frame Time: 0.033333
4.509957 48.812012 32.147144 0.031848 -7.638554 -0.039053 -0.378327 7.417123 3.526966 12.856896 4.512944 5.932763 4.884768 4.707457 2.376857 -0.392146 -0.440848 1.785274 2.145479 -13.905876 2.569407 39.843903 -5.682780 -2.283382 -3.002413 15.765532 0.772624 16.848164 29.138725 -42.730377 18.692593 -14.097178 5.067719 7.936793 -34.567276 -35.162663 0.842105 -15.372231 -5.305308 4.606902 -19.026550 51.830032 14.894463 16.497347 -5.550668 3.575896 34.594521 25.171722 2.611133 6.918869 3.490637 -22.247332 1.779060 5.033414 10.931718 4.841343 -1.247643 1.547092 2.624267 -6.444543 -0.932290 -0.475605 -0.573686 -12.454836 -0.986148 -10.707082 19.500008 1.338701 -0.899572 -8.417130 -9.362707 6.757462 -0.059751 0.298323 0.323540 
5.348524 48.749104 33.203186 0.023301 -8.270006 -0.033630 0.347789 8.167551 2.920153 12.571399 4.571063 6.070693 4.763793 4.899927 2.413219 -0.558611 -0.233332 1.704562 2.263596 -14.406765 2.634160 40.087372 -5.352973 -2.723934 -2.256869 16.290907 0.678581 18.395718 31.345816 -42.925541 17.857357 -13.874138 4.283339 7.698232 -34.430008 -36.176254 1.434952 -15.794453 -5.178069 6.143870 -20.581053 52.462521 15.963172 13.281571 -5.964657 2.879910 34.960289 25.701195 2.929157 7.408904 3.189915 -22.032045 2.314949 4.620943 8.714160 4.829252 -1.106146 2.361042 2.319482 -6.500344 -1.117021 -0.423077 -0.102089 -12.034123 -1.468494 -11.788286 20.140829 1.628076 -0.967144 -9.011998 -8.866914 7.607374 -0.719118 0.050824 0.834038 
6.084120 48.713551 34.463173 0.029656 -8.308008 -0.031877 0.557692 8.078011 2.481890 12.564798 4.711882 5.897338 4.725901 5.176338 2.379666 -1.085442 -0.498159 1.596825 2.416522 -14.543048 2.590616 40.732277 -4.596311 -2.587001 -2.082745 16.668219 0.686897 19.960577 32.350266 -43.288349 17.363207 -12.571829 4.338552 7.849837 -34.186012 -36.904942 1.512540 -15.939345 -5.043298 8.940612 -22.747925 53.410137 16.786037 11.409833 -6.976669 2.042618 34.902439 26.990067 3.296128 7.243495 2.964837 -21.731905 2.629415 4.363445 9.412410 4.747217 -1.423125 2.722648 2.332377 -5.805905 -0.854868 -0.330826 -0.250177 -11.051070 -1.040460 -12.268744 21.010843 1.572125 -1.657310 -10.107105 -9.032016 9.196182 -1.188312 -0.010011 0.987585 
6.774590 48.655666 35.553093 0.034749 -8.083484 -0.025226 0.799283 7.687350 2.124887 12.616283 4.718124 5.378516 4.693350 5.216878 2.209795 -1.279596 -0.457835 1.031208 2.588460 -14.422871 2.758034 40.703434 -4.119839 -2.206853 -2.075279 16.681234 0.666762 20.493320 33.403904 -42.724876 16.773115 -13.070768 3.410733 7.987056 -32.953083 -37.844757 1.756767 -15.600380 -4.707979 10.327903 -24.684938 53.733486 17.401226 9.531965 -7.130003 1.001255 34.614777 28.347664 3.041590 6.993011 2.644943 -21.301195 2.570086 3.972473 12.082064 4.533099 -1.360630 2.427156 2.749443 -4.993504 -0.561302 -0.323172 -0.456975 -10.869789 -1.068314 -13.145229 22.915131 2.255436 -1.512110 -10.318974 -8.610513 9.901186 -2.932209 0.031953 1.334717 
7.479486 48.630344 36.752464 0.053289 -7.834164 -0.037525 0.838059 7.291677 2.233399 12.929933 4.821614 4.566165 4.768851 5.157872 1.791234 -1.521438 -0.200918 0.666207 2.532638 -14.478853 2.536200 40.978077 -3.638094 -1.159527 -2.399578 15.933919 1.246053 20.712854 33.614330 -43.041588 15.985833 -13.471735 2.933974 7.844165 -32.054775 -38.133167 1.857597 -15.599808 -4.432494 11.874634 -25.692089 54.934071 17.375875 9.320222 -7.836019 0.124525 33.413685 29.352463 3.196477 6.572459 2.724810 -21.516335 2.878816 3.513571 15.154294 4.109287 -1.660219 1.502284 2.644588 -4.636756 -0.084820 -0.692763 -0.301615 -11.509830 -1.080345 -14.410655 26.025620 2.938087 -2.220923 -9.403345 -7.717277 12.194230 -6.369853 0.002926 1.283178 
8.110078 48.463425 37.959782 0.031781 -7.162616 -0.028279 0.629443 6.285294 2.262856 13.539577 4.793034 3.680282 5.211649 5.047459 1.340623 -1.508368 -0.133740 0.281419 2.419504 -14.124258 2.765619 40.655155 -2.861367 -0.615843 -3.334636 15.311600 1.875346 19.878805 32.962177 -43.087456 15.111047 -14.372942 1.875343 7.511731 -30.232773 -37.382744 1.356600 -15.143500 -4.068038 12.470362 -26.298306 55.268265 16.964317 9.465851 -7.724570 0.212917 32.289749 30.059849 2.701442 5.523365 2.362168 -21.029154 2.652605 3.563555 17.589806 4.575081 -1.698407 0.540327 2.368284 -4.348521 -0.505701 -0.843763 -0.327488 -12.543892 -0.618503 -14.725831 31.001318 3.821804 -2.903355 -7.649522 -6.234701 13.881255 -11.435526 0.337475 0.419192 
